<svg id="Layer_1" data-name="Layer 1" xmlns="http://www.w3.org/2000/svg" xmlns:xlink="http://www.w3.org/1999/xlink" viewBox="0 0 200 158.46"><defs><style>.cls-1{fill:none;}.cls-2{clip-path:url(#clip-path);}.cls-3{fill:url(#linear-gradient);}</style><clipPath id="clip-path"><path class="cls-1" d="M0,83.25v-8c4-9.81,11.42-13,21.67-12.92q78.33.38,156.66,0c10.27,0,17.67,3.19,21.67,12.93v8c-4,9.77-11.48,13-21.76,12.9q-78.24-.39-156.49,0C11.48,96.2,4,93.06,0,83.25ZM179.2,0Q100.63.47,22,0C11.83-.07,4.28,2.6,0,12.23v9c4.34,9.51,11.79,12.3,22,12.22q78.57-.56,157.15,0c10.3,0,17.31-3.37,20.82-13.19v-7C196.5,3.41,189.51,0,179.2,0Zm0,125q-78.57.47-157.16,0C11.82,125,4.31,127.69,0,137.27v8c3.48,9.88,10.54,13.24,20.83,13.18q79.16-.42,158.32,0c10.31.06,17.32-3.37,20.85-13.19v-7C196.49,128.47,189.52,125,179.2,125.06Z"/></clipPath><linearGradient id="linear-gradient" x1="-4" y1="75.82" x2="206.34" y2="75.82" gradientUnits="userSpaceOnUse"><stop offset="0" stop-color="#30499a"/><stop offset="1" stop-color="#e9277b"/></linearGradient></defs><g class="cls-2"><rect class="cls-3" x="-4" y="-14.75" width="210.34" height="181.13"/></g></svg>