<svg id="Layer_1" data-name="Layer 1" xmlns="http://www.w3.org/2000/svg" xmlns:xlink="http://www.w3.org/1999/xlink" viewBox="0 0 731.76 109.71"><defs><style>.cls-1,.cls-2{fill:none;stroke-miterlimit:10;}.cls-1{stroke-width:4px;stroke:url(#linear-gradient);}.cls-2{stroke:url(#linear-gradient-2);}</style><linearGradient id="linear-gradient" x1="169.87" y1="266.73" x2="552.88" y2="-116.29" gradientUnits="userSpaceOnUse"><stop offset="0" stop-color="#344496"/><stop offset="1" stop-color="#e8287c"/></linearGradient><linearGradient id="linear-gradient-2" x1="117.33" y1="16.92" x2="196.55" y2="16.92" gradientUnits="userSpaceOnUse"><stop offset="0" stop-color="#344496"/><stop offset="0" stop-color="#574395"/><stop offset="0" stop-color="#574395"/><stop offset="0.41" stop-color="#753a89"/><stop offset="0.75" stop-color="#873582"/><stop offset="1" stop-color="#8e337f"/></linearGradient></defs><path class="cls-1" d="M49.37,85.07a27.37,27.37,0,0,1-1.56,9.55,18.81,18.81,0,0,1-4.62,7.13,20.12,20.12,0,0,1-7.53,4.44,32.19,32.19,0,0,1-10.31,1.52,32.66,32.66,0,0,1-9.81-1.37,19,19,0,0,1-7.35-4.14,18,18,0,0,1-4.6-6.93A27,27,0,0,1,2,85.57V50.29a1.31,1.31,0,0,1,.27-.8,1.9,1.9,0,0,1,1-.58,10,10,0,0,1,1.82-.36,24.54,24.54,0,0,1,2.87-.14,24.22,24.22,0,0,1,2.82.14,9.32,9.32,0,0,1,1.79.36,2.09,2.09,0,0,1,1,.58,1.27,1.27,0,0,1,.29.8V84.54a18.75,18.75,0,0,0,.85,6,11,11,0,0,0,2.44,4.19,10,10,0,0,0,3.81,2.49,14.12,14.12,0,0,0,4.95.83,13.87,13.87,0,0,0,5-.85,10,10,0,0,0,3.72-2.49,11.24,11.24,0,0,0,2.35-4,16.62,16.62,0,0,0,.83-5.44V50.29a1.31,1.31,0,0,1,.27-.8,1.88,1.88,0,0,1,.94-.58,9.37,9.37,0,0,1,1.82-.36,24.72,24.72,0,0,1,2.84-.14,23.48,23.48,0,0,1,2.8.14,9.07,9.07,0,0,1,1.77.36,1.91,1.91,0,0,1,1,.58,1.36,1.36,0,0,1,.26.8Zm71.8,17.48a4.48,4.48,0,0,1-.36,1.84,3.81,3.81,0,0,1-1,1.35,3.62,3.62,0,0,1-1.43.78,6.11,6.11,0,0,1-1.68.25h-5a10.36,10.36,0,0,1-2.72-.32,5.28,5.28,0,0,1-2.1-1.14,10.1,10.1,0,0,1-1.86-2.24c-.6-.94-1.27-2.16-2-3.65L88.59,72.3Q87.33,69.88,86,67.08c-.86-1.87-1.64-3.68-2.33-5.45h-.09c.12,2.16.21,4.3.27,6.44s.09,4.34.09,6.61V105a1.43,1.43,0,0,1-.24.81,1.84,1.84,0,0,1-.85.6,6.63,6.63,0,0,1-1.64.38,21,21,0,0,1-2.65.14,20.32,20.32,0,0,1-2.59-.14,6.24,6.24,0,0,1-1.62-.38,1.66,1.66,0,0,1-.81-.6,1.58,1.58,0,0,1-.22-.81V52.89a4,4,0,0,1,1.23-3.16,4.52,4.52,0,0,1,3-1h6.32A12.32,12.32,0,0,1,86.8,49a6,6,0,0,1,2.08,1,7.28,7.28,0,0,1,1.73,1.86,24.14,24.14,0,0,1,1.65,2.93l11.3,21.2,2,3.79q1,1.86,1.86,3.72c.6,1.24,1.18,2.46,1.75,3.65s1.12,2.39,1.66,3.59h0c-.09-2.09-.16-4.28-.2-6.55s-.07-4.43-.07-6.5V50.43a1.32,1.32,0,0,1,.27-.81,2.07,2.07,0,0,1,.9-.62,6,6,0,0,1,1.65-.39c.69-.07,1.57-.11,2.65-.11s1.87,0,2.55.11a5.25,5.25,0,0,1,1.6.39,1.75,1.75,0,0,1,.78.62,1.49,1.49,0,0,1,.22.81Zm72.21-25.72a39.66,39.66,0,0,1-2.09,13.65,23.14,23.14,0,0,1-6,9.25,24,24,0,0,1-9.48,5.27,46.41,46.41,0,0,1-13.29,1.68H148.69a3.63,3.63,0,0,1-2.49-.88,3.58,3.58,0,0,1-1-2.84V52.4a3.58,3.58,0,0,1,1-2.84,3.63,3.63,0,0,1,2.49-.88h14.88a41.56,41.56,0,0,1,13.15,1.82,23.78,23.78,0,0,1,9.1,5.37,23.18,23.18,0,0,1,5.63,8.81A35.28,35.28,0,0,1,193.38,76.83Zm-12.2.4a29.17,29.17,0,0,0-1-7.66,16.25,16.25,0,0,0-3.09-6.14,14.25,14.25,0,0,0-5.47-4.06,22.21,22.21,0,0,0-8.76-1.46h-6V97.36h6.14a23.07,23.07,0,0,0,8.15-1.26,13.62,13.62,0,0,0,5.54-3.79A16.35,16.35,0,0,0,180.09,86,31.62,31.62,0,0,0,181.18,77.23Zm67.64,24.83a16.55,16.55,0,0,1-.12,2.18,5.43,5.43,0,0,1-.33,1.41,1.79,1.79,0,0,1-.56.78,1.2,1.2,0,0,1-.74.25H217.93a3.62,3.62,0,0,1-2.48-.88,3.55,3.55,0,0,1-1-2.84V52.4a3.55,3.55,0,0,1,1-2.84,3.62,3.62,0,0,1,2.48-.88h29a1.21,1.21,0,0,1,.72.23,1.8,1.8,0,0,1,.53.78,6.14,6.14,0,0,1,.34,1.43,19.25,19.25,0,0,1,.11,2.22,18.07,18.07,0,0,1-.11,2.13,5.82,5.82,0,0,1-.34,1.41,2.05,2.05,0,0,1-.53.79,1.16,1.16,0,0,1-.72.24H226.18V72.08h17.53a1.28,1.28,0,0,1,.74.24,1.88,1.88,0,0,1,.56.77,5.37,5.37,0,0,1,.33,1.38,21,21,0,0,1,0,4.29,5.41,5.41,0,0,1-.33,1.36,1.65,1.65,0,0,1-.56.74,1.34,1.34,0,0,1-.74.23H226.18V97.44h20.89a1.27,1.27,0,0,1,.74.25,1.89,1.89,0,0,1,.56.79,5.33,5.33,0,0,1,.33,1.41A16.38,16.38,0,0,1,248.82,102.06Zm64.8,3.09a1.73,1.73,0,0,1-.18.83,1.4,1.4,0,0,1-.85.56,8.34,8.34,0,0,1-2,.32q-1.31.09-3.54.09-1.89,0-3-.09a6.93,6.93,0,0,1-1.78-.34,1.84,1.84,0,0,1-.91-.63,3.43,3.43,0,0,1-.45-.92l-5.2-13c-.63-1.46-1.24-2.76-1.84-3.9a12.6,12.6,0,0,0-2-2.84,7.27,7.27,0,0,0-2.54-1.73,8.69,8.69,0,0,0-3.31-.58h-3.68v22.09a1.22,1.22,0,0,1-.29.81,2,2,0,0,1-1,.58,9.48,9.48,0,0,1-1.79.36,29.28,29.28,0,0,1-5.72,0,9.24,9.24,0,0,1-1.81-.36,1.91,1.91,0,0,1-.95-.58,1.31,1.31,0,0,1-.26-.81V52.4a3.58,3.58,0,0,1,1-2.84,3.66,3.66,0,0,1,2.49-.88h15c1.52,0,2.77,0,3.76.09s1.88.14,2.69.23a24,24,0,0,1,6.3,1.7,15.23,15.23,0,0,1,4.75,3.16,13.23,13.23,0,0,1,3,4.61,16.85,16.85,0,0,1,1,6.12,18,18,0,0,1-.74,5.31,13.6,13.6,0,0,1-2.17,4.28,14.45,14.45,0,0,1-3.54,3.28,19.65,19.65,0,0,1-4.8,2.24A12.76,12.76,0,0,1,304,83.39a21.06,21.06,0,0,1,1.91,2.92A37.75,37.75,0,0,1,307.62,90l4.88,11.43q.67,1.71.9,2.49A4.77,4.77,0,0,1,313.62,105.15ZM298.43,65.8a8.67,8.67,0,0,0-1.3-4.84,7.12,7.12,0,0,0-4.26-2.78,16.43,16.43,0,0,0-2-.36,28.66,28.66,0,0,0-3.16-.13h-5.29V74.14h6a14.15,14.15,0,0,0,4.39-.61,8.75,8.75,0,0,0,3.14-1.7,7.08,7.08,0,0,0,1.88-2.62A8.85,8.85,0,0,0,298.43,65.8Zm81-8.11a20.41,20.41,0,0,1-.11,2.24,6.87,6.87,0,0,1-.32,1.5,1.6,1.6,0,0,1-.49.79,1.08,1.08,0,0,1-.69.22,4.39,4.39,0,0,1-1.89-.81,27.23,27.23,0,0,0-3.45-1.74,36.69,36.69,0,0,0-5.13-1.75,26.51,26.51,0,0,0-6.92-.81,19.21,19.21,0,0,0-7.62,1.46A16.49,16.49,0,0,0,347,62.91a18.55,18.55,0,0,0-3.72,6.41,25,25,0,0,0-1.3,8.27,26.54,26.54,0,0,0,1.32,8.76,17.73,17.73,0,0,0,3.7,6.34,15.22,15.22,0,0,0,5.71,3.86,20.14,20.14,0,0,0,7.38,1.3,17.16,17.16,0,0,0,3.9-.45,14.61,14.61,0,0,0,3.58-1.34V82.61h-11c-.54,0-1-.34-1.25-1a9.2,9.2,0,0,1-.45-3.43,17.4,17.4,0,0,1,.11-2.1,5.34,5.34,0,0,1,.34-1.37,2,2,0,0,1,.53-.76,1.11,1.11,0,0,1,.72-.25h19.59a3.08,3.08,0,0,1,1.28.25,2.68,2.68,0,0,1,1,.74,3.3,3.3,0,0,1,.65,1.18,5.23,5.23,0,0,1,.23,1.6v23.08a5.42,5.42,0,0,1-.48,2.35,3.34,3.34,0,0,1-1.92,1.59c-1,.39-2.18.79-3.61,1.21s-2.92.78-4.46,1.08-3.09.52-4.66.67-3.15.22-4.73.22a36.28,36.28,0,0,1-12.44-2,24.37,24.37,0,0,1-15.12-15,35.21,35.21,0,0,1-2-12.34A36,36,0,0,1,332,65.51a27.24,27.24,0,0,1,6.1-9.64,26.48,26.48,0,0,1,9.52-6.07,35.1,35.1,0,0,1,12.44-2.1,42.42,42.42,0,0,1,6.86.51,37.31,37.31,0,0,1,5.4,1.26,21.19,21.19,0,0,1,3.83,1.59,9.64,9.64,0,0,1,2.13,1.48,3.68,3.68,0,0,1,.87,1.77A15.78,15.78,0,0,1,379.46,57.69Zm66.38,47.46a1.73,1.73,0,0,1-.18.83,1.43,1.43,0,0,1-.86.56,8.25,8.25,0,0,1-2,.32q-1.29.09-3.54.09-1.87,0-3-.09a6.76,6.76,0,0,1-1.77-.34,1.88,1.88,0,0,1-.92-.63,3.43,3.43,0,0,1-.45-.92L428,92c-.62-1.46-1.24-2.76-1.84-3.9a12.29,12.29,0,0,0-2-2.84,7.23,7.23,0,0,0-2.53-1.73,8.75,8.75,0,0,0-3.32-.58H414.6v22.09a1.28,1.28,0,0,1-.29.81,2.09,2.09,0,0,1-1,.58,9.48,9.48,0,0,1-1.79.36,29.28,29.28,0,0,1-5.72,0,9.4,9.4,0,0,1-1.81-.36,1.88,1.88,0,0,1-.94-.58,1.32,1.32,0,0,1-.27-.81V52.4a3.55,3.55,0,0,1,1-2.84,3.63,3.63,0,0,1,2.49-.88h15c1.52,0,2.78,0,3.76.09s1.89.14,2.69.23a24,24,0,0,1,6.3,1.7,15.12,15.12,0,0,1,4.75,3.16,13.23,13.23,0,0,1,3,4.61,16.85,16.85,0,0,1,1,6.12,17.7,17.7,0,0,1-.74,5.31,13.4,13.4,0,0,1-2.17,4.28,14.45,14.45,0,0,1-3.54,3.28,19.47,19.47,0,0,1-4.8,2.24,12.68,12.68,0,0,1,4.6,3.69,22,22,0,0,1,1.9,2.92A37.75,37.75,0,0,1,439.83,90l4.89,11.43c.44,1.14.74,2,.89,2.49A4.87,4.87,0,0,1,445.84,105.15ZM430.64,65.8a8.59,8.59,0,0,0-1.3-4.84,7.06,7.06,0,0,0-4.26-2.78,15.79,15.79,0,0,0-2-.36,28.66,28.66,0,0,0-3.16-.13H414.6V74.14h6a14.11,14.11,0,0,0,4.39-.61,8.75,8.75,0,0,0,3.14-1.7A6.86,6.86,0,0,0,430,69.21,8.85,8.85,0,0,0,430.64,65.8ZM517.14,77a43.13,43.13,0,0,1-1.79,12.91A26.05,26.05,0,0,1,510,99.57a22.89,22.89,0,0,1-8.77,6.05,32.38,32.38,0,0,1-12.08,2.09,35.71,35.71,0,0,1-11.81-1.77,20.46,20.46,0,0,1-8.4-5.4,23.12,23.12,0,0,1-5-9.24A46.38,46.38,0,0,1,462.24,78,41.46,41.46,0,0,1,464,65.38a25.8,25.8,0,0,1,5.33-9.57,23.26,23.26,0,0,1,8.77-6.05,32.12,32.12,0,0,1,12.12-2.11,35.33,35.33,0,0,1,11.63,1.75,20.46,20.46,0,0,1,8.43,5.38,23.48,23.48,0,0,1,5.11,9.16A44.15,44.15,0,0,1,517.14,77Zm-12.37.62a44.2,44.2,0,0,0-.72-8.31,17.79,17.79,0,0,0-2.44-6.41A11.63,11.63,0,0,0,497,58.79a15.81,15.81,0,0,0-7.17-1.46A14.66,14.66,0,0,0,482.59,59a13.28,13.28,0,0,0-4.71,4.37,17.89,17.89,0,0,0-2.53,6.38,38.51,38.51,0,0,0-.74,7.74,46.8,46.8,0,0,0,.71,8.53,18.31,18.31,0,0,0,2.43,6.48,11,11,0,0,0,4.57,4.1A16.28,16.28,0,0,0,489.53,98a14.88,14.88,0,0,0,7.26-1.61A13.06,13.06,0,0,0,501.5,92,18.6,18.6,0,0,0,504,85.5,39.54,39.54,0,0,0,504.77,77.63Zm81,7.44a27.13,27.13,0,0,1-1.57,9.55,18.69,18.69,0,0,1-4.62,7.13,20.12,20.12,0,0,1-7.53,4.44,32.1,32.1,0,0,1-10.31,1.52,32.71,32.71,0,0,1-9.81-1.37,19,19,0,0,1-7.35-4.14A18.14,18.14,0,0,1,540,95.27a26.79,26.79,0,0,1-1.6-9.7V50.29a1.31,1.31,0,0,1,.27-.8,1.89,1.89,0,0,1,1-.58,9.74,9.74,0,0,1,1.81-.36,24.67,24.67,0,0,1,2.87-.14,24,24,0,0,1,2.82.14,9.44,9.44,0,0,1,1.8.36,2,2,0,0,1,1,.58,1.27,1.27,0,0,1,.29.8V84.54a19,19,0,0,0,.85,6,11,11,0,0,0,2.45,4.19,10,10,0,0,0,3.81,2.49,14.08,14.08,0,0,0,5,.83,13.81,13.81,0,0,0,5-.85,9.84,9.84,0,0,0,3.72-2.49,11.26,11.26,0,0,0,2.36-4,16.63,16.63,0,0,0,.82-5.44V50.29a1.38,1.38,0,0,1,.27-.8,1.91,1.91,0,0,1,1-.58,9.24,9.24,0,0,1,1.81-.36,24.78,24.78,0,0,1,2.85-.14,23.6,23.6,0,0,1,2.8.14,9.4,9.4,0,0,1,1.77.36,1.88,1.88,0,0,1,.94.58,1.31,1.31,0,0,1,.27.8Zm71.8,17.48a4.48,4.48,0,0,1-.36,1.84,3.94,3.94,0,0,1-1,1.35,3.73,3.73,0,0,1-1.44.78,6,6,0,0,1-1.68.25h-5a10.23,10.23,0,0,1-2.71-.32,5.32,5.32,0,0,1-2.11-1.14,10.1,10.1,0,0,1-1.86-2.24,40.2,40.2,0,0,1-2-3.65L625,72.3q-1.25-2.42-2.55-5.22c-.87-1.87-1.64-3.68-2.33-5.45H620c.12,2.16.21,4.3.27,6.44s.09,4.34.09,6.61V105a1.44,1.44,0,0,1-.25.81,1.79,1.79,0,0,1-.85.6,6.52,6.52,0,0,1-1.64.38A20.85,20.85,0,0,1,615,107a20.49,20.49,0,0,1-2.6-.14,6,6,0,0,1-1.61-.38,1.66,1.66,0,0,1-.81-.6,1.5,1.5,0,0,1-.23-.81V52.89A4,4,0,0,1,611,49.73a4.5,4.5,0,0,1,3-1h6.32a12.26,12.26,0,0,1,2.87.29,6.07,6.07,0,0,1,2.09,1A7.26,7.26,0,0,1,627,51.8a24.08,24.08,0,0,1,1.66,2.93l11.29,21.2,1.95,3.79c.65,1.24,1.26,2.48,1.86,3.72s1.18,2.46,1.75,3.65,1.12,2.39,1.66,3.59h0c-.09-2.09-.15-4.28-.2-6.55s-.06-4.43-.06-6.5V50.43a1.31,1.31,0,0,1,.26-.81,2.07,2.07,0,0,1,.9-.62,6.05,6.05,0,0,1,1.66-.39c.69-.07,1.57-.11,2.64-.11s1.87,0,2.56.11a5.25,5.25,0,0,1,1.59.39,1.75,1.75,0,0,1,.78.62,1.5,1.5,0,0,1,.23.81Zm72.2-25.72a39.91,39.91,0,0,1-2.08,13.65,23.16,23.16,0,0,1-6,9.25,24,24,0,0,1-9.48,5.27,46.41,46.41,0,0,1-13.29,1.68H685.07a3.62,3.62,0,0,1-2.48-.88,3.55,3.55,0,0,1-1-2.84V52.4a3.55,3.55,0,0,1,1-2.84,3.62,3.62,0,0,1,2.48-.88H700a41.63,41.63,0,0,1,13.16,1.82,23.93,23.93,0,0,1,9.1,5.37,23.16,23.16,0,0,1,5.62,8.81A35,35,0,0,1,729.76,76.83Zm-12.19.4a28.75,28.75,0,0,0-1-7.66,16.25,16.25,0,0,0-3.09-6.14A14.25,14.25,0,0,0,708,59.37a22.14,22.14,0,0,0-8.76-1.46h-6V97.36h6.14a23.09,23.09,0,0,0,8.16-1.26,13.66,13.66,0,0,0,5.53-3.79A16.22,16.22,0,0,0,716.47,86,31.6,31.6,0,0,0,717.57,77.23Z"/><path class="cls-2" d="M127.82,4.11h-10V.5h24.31V4.11h-10V33.35h-4.28ZM150,.5V14.24h15.89V.5h4.29V33.35h-4.29V18H150v15.4H145.8V.5ZM194.59,18H181.82V29.79h14.23v3.56H177.58V.5h17.74V4.06h-13.5V14.44h12.77Z"/></svg>